<svg height="100" width="100" viewBox="0 0 24 24" fill="transparent" role="img" xmlns="http://www.w3.org/2000/svg">
    <g>
      <path fill="violet" d="M 4 8 L 3 21 C 4 22.105469 3.894531 23 5 23 L 19 23 C 20.105469 23 21 22.105469 21 21 L 21 8 Z M 4 8 "/>
      <path fill="indigo" d="M 4 7 L 4 20 C 4 21.101562 4.894531 22 5 22 L 19 22 C 20.105469 22 21 21.101562 21 20 L 21 7 Z M 4 7 "/>
      <path fill="blue" d="M 4 6 L 4 19 C 4 20.101562 4.894531 21 5 21 L 19 21 C 20.105469 21 21 20.101562 21 19 L 21 6 Z M 4 6 "/>
      <path fill="green" d="M 4 5 L 4 18 C 4 19.101562 4.894531 20 5 20 L 19 20 C 20.105469 20 21 19.101562 21 18 L 21 5 Z M 4 5 "/>
      <path fill="yellow" d="M 5 1 C 3.894531 1 3 1.894531 3 3 L 3 21 C 3 22.105469 3.894531 23 5 23 L 7 23 L 7 22 L 5.5 22 C 4.671875 22 4 21.328125 4 20.5 C 4 19.671875 4.671875 19 5.5 19 L 19 19 C 20.105469 19 21 18.105469 21 17 L 21 3 C 21 1.894531 20.105469 1 19 1 Z M 5 1 "/>
      <path fill="orange" d="M 8 1 L 8 19 L 19 19 C 20.105469 19 21 18.105469 21 17 L 21 3 C 21 1.894531 20.105469 1 19 1 Z M 8 1 "/>
    </g>
  </svg>