<?xml version="1.0" standalone="no"?>
<!DOCTYPE svg PUBLIC "-//W3C//DTD SVG 20010904//EN"
 "http://www.w3.org/TR/2001/REC-SVG-20010904/DTD/svg10.dtd">
<svg version="1.0" xmlns="http://www.w3.org/2000/svg"
 width="512.000000pt" height="512.000000pt" viewBox="0 0 512.000000 512.000000"
 preserveAspectRatio="xMidYMid meet">

<g transform="translate(0.000000,512.000000) scale(0.100000,-0.100000)"
fill="#000000" stroke="none">
<path d="M2305 4714 c-16 -2 -70 -9 -120 -15 -79 -10 -121 -18 -248 -45 -66
-15 -28 -24 100 -24 148 0 172 -6 205 -51 19 -25 19 -62 19 -1259 0 -1356 -4
-1273 62 -1306 28 -15 63 -16 308 -11 176 3 284 9 298 16 37 20 51 63 51 155
l0 86 -177 2 -178 3 0 120 0 120 177 3 178 2 2 753 3 752 53 3 c28 2 52 7 52
12 0 5 -11 44 -25 87 -14 43 -25 86 -25 97 0 10 -14 66 -30 123 -29 101 -30
105 -14 139 22 45 44 59 124 80 36 9 69 20 74 24 7 7 -97 43 -229 79 -108 30
-290 52 -455 56 -96 2 -188 2 -205 -1z m675 -469 l0 -125 -177 2 -178 3 -3
109 c-1 61 0 116 2 123 4 10 45 13 181 13 l175 0 0 -125z m-307 -383 c16 -14
17 -53 17 -545 0 -480 -2 -532 -17 -549 -21 -24 -68 -23 -93 2 -19 19 -20 33
-20 543 0 564 0 561 53 569 25 5 35 1 60 -20z"/>
<path d="M3783 4243 c2 -10 16 -58 31 -107 14 -48 26 -94 26 -102 0 -12 57
-14 343 -14 322 0 344 -1 374 -20 67 -41 63 44 63 -1260 l0 -1180 90 0 90 0 2
1193 3 1192 -22 59 c-40 105 -86 148 -199 186 -54 18 -88 20 -400 20 l-341 0
-23 25 c-27 29 -44 33 -37 8z"/>
<path d="M483 3403 c-75 -172 -122 -332 -150 -513 -23 -143 -23 -513 0 -660
26 -170 105 -434 160 -535 15 -28 16 30 17 863 0 490 -1 892 -3 892 -2 0 -13
-21 -24 -47z"/>
<path d="M1050 941 c0 -15 97 -93 210 -169 111 -74 291 -169 425 -223 83 -33
346 -109 356 -103 15 9 41 124 64 289 14 99 25 188 25 197 0 17 -32 18 -540
18 -323 0 -540 -4 -540 -9z"/>
<path d="M3004 888 c12 -118 47 -350 56 -373 l9 -23 68 20 c150 45 356 144
503 241 69 46 250 186 250 194 0 1 -201 3 -446 3 l-447 0 7 -62z"/>
</g>
</svg>
