<?xml version="1.0" standalone="no"?>
<!DOCTYPE svg PUBLIC "-//W3C//DTD SVG 20010904//EN"
 "http://www.w3.org/TR/2001/REC-SVG-20010904/DTD/svg10.dtd">
<svg version="1.0" xmlns="http://www.w3.org/2000/svg"
 width="512.000000pt" height="512.000000pt" viewBox="0 0 512.000000 512.000000"
 preserveAspectRatio="xMidYMid meet">
<metadata>
Created by potrace 1.14, written by Peter Selinger 2001-2017
</metadata>
<g transform="translate(0.000000,512.000000) scale(0.100000,-0.100000)"
fill="#000000" stroke="none">
<path d="M2350 4723 c0 -7 -69 -15 -162 -17 -16 -1 -28 -3 -28 -6 0 -3 -14 -6
-31 -6 -17 -1 -35 -8 -40 -15 -7 -11 -9 -11 -9 -1 0 7 -4 11 -8 8 -5 -3 -41
-12 -81 -20 -40 -9 -78 -19 -85 -24 -6 -4 -26 -7 -43 -7 -18 1 -33 -2 -33 -5
0 -4 -7 -7 -15 -8 -8 -1 -22 -3 -30 -4 -8 -1 -15 -5 -15 -10 0 -5 -4 -7 -9 -3
-5 3 -12 1 -16 -5 -4 -6 -11 -8 -16 -5 -5 4 -9 2 -9 -4 0 -5 -9 -8 -20 -6 -11
2 -20 -1 -20 -6 0 -6 -4 -7 -10 -4 -5 3 -10 1 -10 -5 0 -6 -4 -9 -8 -6 -13 8
-217 -100 -214 -113 1 -7 -2 -10 -7 -7 -14 9 -78 -21 -85 -39 -3 -9 -10 -14
-16 -10 -5 3 -18 -3 -30 -15 -11 -11 -23 -20 -27 -19 -5 0 -21 -11 -38 -24
-16 -13 -38 -26 -47 -30 -10 -3 -18 -11 -18 -17 0 -6 -4 -8 -10 -5 -5 3 -10
-1 -10 -10 0 -9 -4 -13 -10 -10 -5 3 -15 -3 -22 -15 -7 -11 -21 -20 -31 -20
-10 0 -15 -4 -12 -10 3 -5 2 -10 -3 -10 -17 0 -103 -91 -96 -102 4 -7 3 -8 -5
-4 -13 8 -63 -38 -53 -48 3 -3 0 -6 -6 -6 -7 0 -31 -20 -55 -44 -61 -62 -98
-106 -91 -106 4 0 -5 -11 -19 -24 -14 -13 -23 -27 -20 -30 4 -3 1 -6 -6 -6 -8
0 -11 -7 -7 -15 3 -8 0 -14 -7 -12 -7 1 -11 -4 -9 -10 1 -7 -5 -13 -13 -13 -8
0 -15 -7 -15 -15 0 -8 -5 -15 -11 -15 -5 0 -8 -4 -4 -9 3 -5 -3 -16 -13 -23
-11 -7 -18 -21 -16 -30 1 -10 -3 -16 -9 -15 -7 1 -11 -6 -11 -15 1 -10 -2 -18
-6 -18 -4 0 -15 -16 -26 -35 -10 -19 -23 -35 -29 -35 -5 0 -3 -5 5 -10 13 -9
13 -10 0 -10 -9 0 -16 -10 -17 -22 -1 -11 -7 -24 -12 -28 -6 -3 -13 -17 -15
-30 -2 -14 -5 -27 -6 -30 -2 -3 -2 -8 -1 -12 0 -5 -3 -8 -9 -8 -5 0 -10 -7
-10 -15 0 -8 -6 -15 -12 -15 -10 0 -10 -2 0 -9 11 -7 10 -10 -3 -15 -9 -3 -15
-12 -12 -19 2 -6 -5 -29 -15 -49 -11 -21 -17 -41 -14 -47 3 -5 -1 -11 -9 -15
-8 -3 -12 -12 -9 -20 3 -8 0 -17 -5 -21 -6 -3 -9 -10 -6 -15 3 -5 1 -11 -4
-15 -6 -3 -8 -12 -4 -20 3 -9 0 -22 -7 -30 -10 -12 -10 -15 1 -15 11 0 11 -2
-1 -10 -8 -5 -15 -20 -16 -32 -1 -13 -4 -31 -8 -40 -4 -9 -4 -22 0 -29 4 -7 3
-9 -3 -6 -15 9 -22 -49 -9 -64 8 -9 8 -10 -1 -5 -13 7 -17 -6 -15 -53 1 -13
-3 -33 -9 -43 -9 -16 -8 -19 2 -13 8 6 10 4 3 -6 -12 -20 -14 -38 -4 -44 5 -3
3 -20 -4 -38 -8 -21 -11 -80 -10 -172 3 -146 4 -161 18 -184 6 -9 5 -12 -1 -8
-7 4 -10 -5 -8 -26 2 -17 4 -32 5 -32 3 0 9 -63 12 -122 1 -18 6 -33 11 -33 4
0 7 -6 6 -12 -3 -20 12 -88 21 -93 5 -3 6 -14 3 -25 -3 -12 0 -20 6 -20 7 0
10 -4 7 -8 -3 -5 0 -26 6 -48 6 -21 11 -42 10 -46 -1 -5 2 -8 8 -8 5 0 7 -7 4
-15 -3 -8 0 -17 8 -20 8 -3 14 -15 13 -27 -1 -12 7 -38 17 -59 10 -21 18 -43
18 -49 0 -5 5 -10 11 -10 5 0 7 -5 4 -10 -3 -6 0 -13 9 -16 8 -3 12 -12 9 -20
-3 -8 0 -14 7 -14 6 0 9 -4 6 -9 -3 -4 3 -27 14 -49 11 -23 20 -45 20 -50 0
-5 7 -15 15 -22 8 -7 12 -16 9 -21 -3 -5 0 -9 5 -9 6 0 11 -7 11 -15 0 -9 7
-18 15 -21 8 -4 12 -10 9 -15 -3 -5 0 -9 6 -9 6 0 8 -4 5 -10 -3 -5 -1 -10 5
-10 6 0 8 -5 5 -10 -3 -6 -2 -10 4 -10 5 0 13 -9 16 -20 4 -11 18 -32 31 -45
14 -14 21 -25 17 -25 -4 0 -3 -4 3 -8 6 -4 21 -23 33 -42 11 -19 21 -31 21
-25 0 5 12 -10 27 -33 15 -23 36 -45 45 -48 10 -3 16 -9 13 -14 -7 -11 70 -91
79 -83 3 4 6 1 6 -5 0 -17 90 -103 100 -97 5 3 15 -3 22 -15 7 -11 18 -20 25
-20 7 0 13 -7 13 -15 0 -8 11 -17 25 -21 14 -4 24 -9 21 -12 -7 -6 36 -38 47
-34 4 1 7 -3 7 -8 0 -6 6 -10 14 -10 8 0 17 -7 20 -16 4 -9 9 -14 12 -11 3 3
17 -5 31 -19 13 -13 28 -24 33 -24 18 0 25 -4 42 -24 10 -12 17 -17 18 -13 0
4 10 -1 22 -13 20 -18 39 -25 61 -21 4 0 7 -3 7 -8 0 -13 150 -82 162 -75 7 4
8 2 4 -4 -6 -11 6 -16 27 -13 4 0 7 -3 7 -7 0 -4 10 -9 22 -9 13 -1 24 -7 26
-13 2 -5 15 -10 28 -10 13 0 24 -4 24 -10 0 -5 13 -10 29 -10 17 0 32 -4 36
-10 3 -5 12 -7 20 -3 8 3 15 1 15 -5 0 -5 11 -8 25 -7 14 2 23 -1 19 -6 -3 -5
5 -10 18 -11 42 -2 47 -3 54 -11 4 -4 17 -7 28 -7 12 0 39 -7 61 -14 22 -8 48
-12 57 -11 10 2 18 1 18 -3 0 -4 19 -7 43 -8 51 -1 168 -13 177 -19 3 -2 12 0
20 5 8 5 22 5 32 -1 13 -7 18 -6 18 2 0 8 4 8 15 -1 12 -10 15 -10 15 0 0 9 4
9 17 -1 13 -11 17 -11 21 -1 3 10 7 10 18 1 11 -9 14 -8 14 2 0 10 3 10 11 2
8 -8 20 -8 35 -3 13 5 24 6 24 1 0 -4 7 -8 15 -8 8 0 15 3 15 7 0 3 8 6 18 7
74 3 109 8 120 16 8 6 12 5 12 -4 0 -9 3 -10 8 -4 4 6 16 10 27 11 19 1 39 4
110 19 16 3 35 11 42 17 9 7 13 7 13 -1 0 -8 10 -6 30 4 17 9 30 13 30 9 0 -4
6 -1 13 5 8 6 17 8 20 4 4 -3 7 -1 7 5 0 7 5 12 11 12 5 0 7 -6 4 -12 -4 -7
-1 -6 7 3 7 9 21 15 31 13 9 -1 17 3 17 9 0 8 3 7 9 -1 7 -11 9 -11 14 2 3 8
14 13 26 11 11 -2 22 3 25 11 3 7 12 11 21 8 10 -4 15 0 15 11 0 14 3 15 15 5
11 -9 15 -9 15 -1 0 7 5 9 10 6 6 -3 10 -1 10 4 0 6 3 10 8 9 4 -1 17 3 30 10
12 7 22 9 22 5 0 -4 4 -2 9 5 4 7 18 14 29 15 12 1 22 7 22 15 0 7 4 11 10 7
10 -6 50 13 62 30 4 6 11 10 15 11 22 2 63 25 63 34 0 6 5 8 10 5 6 -3 13 1
16 9 3 9 10 14 14 11 5 -3 14 1 22 8 7 7 28 22 46 32 17 11 32 23 32 27 0 4 7
8 15 8 9 0 18 7 21 15 4 8 12 15 20 15 8 0 14 5 14 10 0 6 5 10 11 10 6 0 24
14 40 31 16 17 29 28 29 25 0 -4 10 3 23 14 18 17 30 20 65 16 30 -3 40 -2 36
6 -4 7 -3 8 5 4 17 -11 121 -14 121 -4 0 5 5 6 12 2 18 -11 68 -13 68 -2 0 5
5 6 11 2 17 -10 109 -12 109 -2 0 5 5 6 11 2 17 -10 109 -12 109 -2 0 5 6 6
12 2 19 -12 119 -6 136 8 13 11 14 11 7 -2 -7 -12 -6 -13 7 -3 8 7 18 10 21 6
4 -3 7 -1 7 6 0 7 4 10 8 7 5 -3 18 4 30 14 12 11 28 20 37 20 9 0 14 4 11 8
-3 5 6 15 19 22 13 7 22 17 19 22 -3 4 -1 8 5 8 5 0 13 9 16 20 4 11 11 17 17
14 6 -4 8 -2 4 4 -3 6 -2 13 4 17 6 4 8 11 5 16 -4 5 -2 9 3 9 5 0 9 7 9 15 0
8 -5 15 -11 15 -6 0 -4 5 4 10 17 11 20 30 8 47 -5 6 -5 14 -1 16 5 3 8 55 7
116 -1 62 2 109 7 106 4 -3 1 11 -7 31 -8 19 -10 33 -5 29 7 -3 11 3 11 15 0
14 -4 19 -12 14 -10 -6 -10 -4 -3 7 12 16 13 287 2 306 -4 6 -4 14 1 17 4 2 7
54 6 115 -1 62 2 109 7 106 4 -3 1 11 -7 31 -8 19 -10 33 -5 29 7 -3 11 3 11
15 0 14 -4 19 -12 14 -10 -6 -10 -4 -3 7 12 16 13 287 2 306 -4 6 -4 14 1 17
4 2 7 54 6 115 -1 62 2 109 7 106 4 -3 1 11 -7 31 -8 19 -10 33 -5 29 7 -3 11
3 11 15 0 14 -4 19 -12 14 -10 -6 -10 -4 -3 7 12 16 13 287 2 306 -4 6 -4 14
1 17 4 2 7 54 6 115 -1 62 2 109 7 106 4 -3 1 11 -7 31 -8 19 -10 33 -5 29 7
-3 11 3 11 15 0 14 -4 19 -12 14 -10 -6 -10 -4 -3 7 12 16 13 287 2 306 -4 6
-3 14 2 17 5 3 7 15 4 27 -4 12 0 25 8 30 8 5 9 9 3 9 -7 0 -14 9 -17 20 -3
12 -1 18 5 14 7 -5 8 3 3 22 -4 16 -8 35 -8 42 0 6 -4 12 -9 12 -5 0 -6 5 -3
10 3 6 2 10 -4 10 -6 0 -8 7 -5 15 4 8 1 15 -6 15 -7 0 -10 7 -6 15 3 9 0 15
-9 15 -8 0 -14 3 -13 8 4 11 -28 53 -35 45 -4 -3 -7 0 -7 8 0 15 -87 62 -114
62 -9 0 -16 5 -16 10 0 5 -7 7 -15 4 -8 -4 -16 -3 -19 1 -6 9 -197 9 -212 -1
-7 -4 -17 0 -24 8 -9 11 -16 12 -26 4 -7 -6 -23 -8 -35 -4 -15 5 -19 4 -14 -5
6 -9 3 -9 -11 -2 -11 5 -32 8 -49 7 -16 -2 -36 2 -44 8 -11 9 -13 9 -8 0 5 -7
-4 -11 -28 -10 -19 1 -35 5 -35 11 0 5 -7 1 -15 -10 -8 -10 -15 -14 -15 -7 0
7 -7 10 -15 7 -8 -4 -22 -1 -29 5 -11 9 -16 9 -21 1 -4 -7 -18 -9 -32 -5 -17
4 -23 2 -18 -6 6 -8 2 -8 -14 0 -12 7 -25 10 -29 8 -14 -9 -53 13 -46 24 4 7
3 9 -4 5 -13 -8 -44 22 -37 35 4 5 2 9 -2 9 -5 0 -9 10 -10 22 -1 11 -8 25
-15 29 -10 7 -10 9 2 9 12 0 12 2 2 9 -8 4 -13 11 -13 15 1 6 0 14 -3 31 -1 6
-6 29 -10 52 -5 24 -12 41 -15 38 -4 -2 -8 7 -9 21 -3 46 -5 54 -14 54 -4 0
-7 3 -7 8 6 35 -36 92 -70 95 -12 1 -21 5 -21 10 0 5 -8 6 -17 2 -24 -9 -55
-16 -73 -17 -8 0 -19 -4 -25 -8 -5 -4 -18 -6 -27 -5 -10 2 -18 -1 -18 -6 0 -4
-7 -6 -15 -3 -8 4 -15 2 -15 -4 0 -6 -11 -9 -25 -7 -14 1 -25 -2 -25 -8 0 -6
-3 -7 -7 -4 -3 4 -13 1 -21 -6 -13 -10 -14 -9 -8 1 6 11 2 11 -20 -1 -16 -8
-35 -12 -41 -10 -7 3 -13 -1 -13 -7 0 -7 -8 -10 -20 -7 -11 3 -20 1 -20 -5 0
-6 -11 -3 -25 6 -13 9 -36 17 -50 18 -14 1 -25 5 -25 9 0 3 -6 6 -12 6 -7 1
-59 13 -116 28 -57 15 -110 24 -118 21 -9 -4 -12 -2 -8 5 4 7 -4 10 -22 8 -16
-1 -37 2 -47 6 -9 4 -26 5 -37 2 -11 -3 -20 -1 -20 4 0 5 -5 9 -11 9 -5 0 -7
-6 -4 -12 4 -7 1 -6 -7 3 -8 10 -20 14 -33 9 -11 -4 -34 -4 -52 1 -18 4 -33 5
-33 2 0 -3 -7 0 -15 7 -12 10 -18 10 -30 0 -11 -9 -15 -9 -15 -1 0 9 -5 9 -21
0 -15 -8 -19 -8 -15 0 5 8 0 8 -18 1 -17 -6 -26 -6 -26 1 0 6 -6 6 -18 0 -11
-6 -24 -6 -35 0 -12 7 -17 6 -17 -2 0 -8 -4 -8 -15 1 -8 7 -15 8 -15 3z"/>
</g>
</svg>
