<?xml version="1.0" encoding="UTF-8"?>
<svg xmlns="http://www.w3.org/2000/svg" version="1.1" width="512px" height="512px" style="shape-rendering:geometricPrecision; text-rendering:geometricPrecision; image-rendering:optimizeQuality; fill-rule:evenodd; clip-rule:evenodd" xmlns:xlink="http://www.w3.org/1999/xlink">
<g><path style="opacity:0.169" fill="#4b4c5a" d="M 315.5,49.5 C 314.903,50.1386 314.07,50.472 313,50.5C 272.641,37.4109 231.807,36.0775 190.5,46.5C 189.893,46.3764 189.56,46.0431 189.5,45.5C 231.893,33.9051 273.893,35.2385 315.5,49.5 Z"/></g>
<g><path style="opacity:0.99" fill="#252e76" d="M 315.5,49.5 C 315.833,49.5 316.167,49.5 316.5,49.5C 317.1,50.8999 318.1,51.8999 319.5,52.5C 314.758,54.4661 309.758,55.9661 304.5,57C 301.977,58.3597 299.977,60.193 298.5,62.5C 298.802,59.9407 298.468,57.6074 297.5,55.5C 295.656,52.3128 292.989,50.3128 289.5,49.5C 270.671,48.3377 251.671,48.1711 232.5,49C 229.642,50.6941 227.309,52.8607 225.5,55.5C 223.656,52.3128 220.989,50.3128 217.5,49.5C 217.5,49.1667 217.5,48.8333 217.5,48.5C 207.624,48.1571 197.957,47.1571 188.5,45.5C 188.833,45.5 189.167,45.5 189.5,45.5C 189.56,46.0431 189.893,46.3764 190.5,46.5C 231.807,36.0775 272.641,37.4109 313,50.5C 314.07,50.472 314.903,50.1386 315.5,49.5 Z"/></g>
<g><path style="opacity:0.573" fill="#48574f" d="M 380.5,85.5 C 379.167,85.5 378.5,86.1667 378.5,87.5C 377.455,81.9922 375.789,76.6589 373.5,71.5C 372.623,63.3714 370.623,55.5381 367.5,48C 360.509,42.5355 353.176,42.0355 345.5,46.5C 336.689,47.8693 328.023,49.8693 319.5,52.5C 318.1,51.8999 317.1,50.8999 316.5,49.5C 317.817,49.821 319.151,50.1543 320.5,50.5C 332.87,46.9491 345.37,43.9491 358,41.5C 363.506,41.9188 367.506,44.5855 370,49.5C 373.443,61.5686 376.943,73.5686 380.5,85.5 Z"/></g>
<g><path style="opacity:0.999" fill="#48d589" d="M 373.5,71.5 C 373.548,74.3128 374.215,76.9795 375.5,79.5C 364.06,83.647 352.393,86.9803 340.5,89.5C 339.755,82.186 337.922,75.186 335,68.5C 332.572,58.047 336.072,50.7137 345.5,46.5C 353.176,42.0355 360.509,42.5355 367.5,48C 370.623,55.5381 372.623,63.3714 373.5,71.5 Z"/></g>
<g><path style="opacity:0.259" fill="#5d5550" d="M 188.5,45.5 C 197.957,47.1571 207.624,48.1571 217.5,48.5C 204.829,48.3334 192.162,48.5001 179.5,49C 175.939,50.2321 172.606,51.7321 169.5,53.5C 164.212,55.4712 158.879,57.4712 153.5,59.5C 153.5,59.1667 153.5,58.8333 153.5,58.5C 164.437,52.4075 176.103,48.0741 188.5,45.5 Z"/></g>
<g><path style="opacity:1" fill="#fdb232" d="M 195.5,49.5 C 192.377,52.0762 190.543,55.4096 190,59.5C 189.5,69.1609 189.334,78.8276 189.5,88.5C 177.5,88.5 165.5,88.5 153.5,88.5C 153.5,78.8333 153.5,69.1667 153.5,59.5C 158.879,57.4712 164.212,55.4712 169.5,53.5C 173.325,52.926 176.991,51.7594 180.5,50C 185.489,49.5007 190.489,49.3341 195.5,49.5 Z"/></g>
<g><path style="opacity:1" fill="#fedb3f" d="M 195.5,49.5 C 202.833,49.5 210.167,49.5 217.5,49.5C 220.989,50.3128 223.656,52.3128 225.5,55.5C 225.5,61.8333 225.5,68.1667 225.5,74.5C 225.5,79.1667 225.5,83.8333 225.5,88.5C 213.5,88.5 201.5,88.5 189.5,88.5C 189.334,78.8276 189.5,69.1609 190,59.5C 190.543,55.4096 192.377,52.0762 195.5,49.5 Z"/></g>
<g><path style="opacity:1" fill="#e60754" d="M 289.5,49.5 C 282.492,49.3337 275.492,49.5004 268.5,50C 266.291,51.8734 264.458,54.04 263,56.5C 262.501,62.4908 262.334,68.4908 262.5,74.5C 262.167,74.5 261.833,74.5 261.5,74.5C 249.5,74.5 237.5,74.5 225.5,74.5C 225.5,68.1667 225.5,61.8333 225.5,55.5C 227.309,52.8607 229.642,50.6941 232.5,49C 251.671,48.1711 270.671,48.3377 289.5,49.5 Z"/></g>
<g><path style="opacity:1" fill="#fe4155" d="M 289.5,49.5 C 292.989,50.3128 295.656,52.3128 297.5,55.5C 297.5,61.8333 297.5,68.1667 297.5,74.5C 285.833,74.5 274.167,74.5 262.5,74.5C 262.334,68.4908 262.501,62.4908 263,56.5C 264.458,54.04 266.291,51.8734 268.5,50C 275.492,49.5004 282.492,49.3337 289.5,49.5 Z"/></g>
<g><path style="opacity:0.871" fill="#c99e3d" d="M 217.5,48.5 C 217.5,48.8333 217.5,49.1667 217.5,49.5C 210.167,49.5 202.833,49.5 195.5,49.5C 190.489,49.3341 185.489,49.5007 180.5,50C 176.991,51.7594 173.325,52.926 169.5,53.5C 172.606,51.7321 175.939,50.2321 179.5,49C 192.162,48.5001 204.829,48.3334 217.5,48.5 Z"/></g>
<g><path style="opacity:0.992" fill="#50a9f3" d="M 152.5,61.5 C 152.5,65.8333 152.5,70.1667 152.5,74.5C 144.981,74.825 137.648,74.4916 130.5,73.5C 137.217,68.473 144.55,64.473 152.5,61.5 Z"/></g>
<g><path style="opacity:0.4" fill="#4d6175" d="M 153.5,58.5 C 153.5,58.8333 153.5,59.1667 153.5,59.5C 152.662,59.8417 152.328,60.5084 152.5,61.5C 144.55,64.473 137.217,68.473 130.5,73.5C 125.485,76.0043 120.819,79.0043 116.5,82.5C 115.167,82.8333 113.833,83.1667 112.5,83.5C 124.991,73.4125 138.658,65.0792 153.5,58.5 Z"/></g>
<g><path style="opacity:1" fill="#72c1f7" d="M 130.5,73.5 C 137.648,74.4916 144.981,74.825 152.5,74.5C 152.5,82.8333 152.5,91.1667 152.5,99.5C 152.167,99.5 151.833,99.5 151.5,99.5C 140.167,99.5 128.833,99.5 117.5,99.5C 117.822,93.642 117.489,87.9753 116.5,82.5C 120.819,79.0043 125.485,76.0043 130.5,73.5 Z"/></g>
<g><path style="opacity:1" fill="#f97488" d="M 297.5,55.5 C 298.468,57.6074 298.802,59.9407 298.5,62.5C 298.5,66.1667 298.5,69.8333 298.5,73.5C 298.5,79.1667 298.5,84.8333 298.5,90.5C 298.5,97.1667 298.5,103.833 298.5,110.5C 298.5,160.167 298.5,209.833 298.5,259.5C 298.829,274.343 298.496,289.01 297.5,303.5C 297.5,297.5 297.5,291.5 297.5,285.5C 297.5,277.167 297.5,268.833 297.5,260.5C 297.5,206.833 297.5,153.167 297.5,99.5C 285.833,99.5 274.167,99.5 262.5,99.5C 262.167,99.5 261.833,99.5 261.5,99.5C 261.5,91.1667 261.5,82.8333 261.5,74.5C 261.833,74.5 262.167,74.5 262.5,74.5C 274.167,74.5 285.833,74.5 297.5,74.5C 297.5,68.1667 297.5,61.8333 297.5,55.5 Z"/></g>
<g><path style="opacity:1" fill="#2b397b" d="M 298.5,73.5 C 300.435,77.8949 301.769,82.5615 302.5,87.5C 302.5,88.5 302.5,89.5 302.5,90.5C 301.167,90.5 299.833,90.5 298.5,90.5C 298.5,84.8333 298.5,79.1667 298.5,73.5 Z"/></g>
<g><path style="opacity:1" fill="#3ac575" d="M 345.5,46.5 C 336.072,50.7137 332.572,58.047 335,68.5C 337.922,75.186 339.755,82.186 340.5,89.5C 352.393,86.9803 364.06,83.647 375.5,79.5C 374.215,76.9795 373.548,74.3128 373.5,71.5C 375.789,76.6589 377.455,81.9922 378.5,87.5C 378.557,88.609 378.89,89.609 379.5,90.5C 381.169,97.1809 382.835,103.848 384.5,110.5C 397.142,157.066 409.475,203.732 421.5,250.5C 421.357,252.262 421.691,253.929 422.5,255.5C 411.348,259.122 400.015,262.122 388.5,264.5C 389.812,272.274 391.645,279.94 394,287.5C 397.506,295.683 403.673,299.849 412.5,300C 411.263,300.232 410.263,300.732 409.5,301.5C 397.205,305.034 384.705,308.368 372,311.5C 366.371,311.539 362.705,308.872 361,303.5C 357.974,293.931 355.474,284.264 353.5,274.5C 364.746,271.083 376.079,268.083 387.5,265.5C 386.656,259.449 385.49,253.449 384,247.5C 374.382,212.153 364.882,176.819 355.5,141.5C 353.194,141.993 350.861,142.326 348.5,142.5C 353.627,140.376 358.961,138.543 364.5,137C 367.473,132.727 366.807,129.06 362.5,126C 358.351,125.331 354.351,125.831 350.5,127.5C 350.167,124.833 349.833,122.167 349.5,119.5C 348.167,119.5 346.833,119.5 345.5,119.5C 350.948,117.364 356.615,115.53 362.5,114C 366.919,109.181 366.252,105.181 360.5,102C 355.18,102.469 349.847,103.303 344.5,104.5C 343.513,99.8827 342.846,95.216 342.5,90.5C 331.794,92.843 321.128,95.5097 310.5,98.5C 311.476,100.123 310.976,101.457 309,102.5C 308.51,103.793 308.343,105.127 308.5,106.5C 306.606,100.133 304.606,93.7992 302.5,87.5C 301.769,82.5615 300.435,77.8949 298.5,73.5C 298.5,69.8333 298.5,66.1667 298.5,62.5C 299.977,60.193 301.977,58.3597 304.5,57C 309.758,55.9661 314.758,54.4661 319.5,52.5C 328.023,49.8693 336.689,47.8693 345.5,46.5 Z"/></g>
<g><path style="opacity:0.994" fill="#4fa8f1" d="M 116.5,82.5 C 117.489,87.9753 117.822,93.642 117.5,99.5C 110.5,99.5 103.5,99.5 96.5,99.5C 102.167,94.5 107.167,89.5 111.5,84.5C 111.5,83.8333 111.833,83.5 112.5,83.5C 113.833,83.1667 115.167,82.8333 116.5,82.5 Z"/></g>
<g><path style="opacity:0.118" fill="#3b444d" d="M 380.5,85.5 C 382.196,85.6854 383.529,86.5187 384.5,88C 407.67,88.1679 430.67,88.6679 453.5,89.5C 429.831,89.6666 406.164,89.5 382.5,89C 381.695,87.8873 381.028,86.7206 380.5,85.5 Z"/></g>
<g><path style="opacity:1" fill="#fe9101" d="M 153.5,88.5 C 165.5,88.5 177.5,88.5 189.5,88.5C 189.5,93.8333 189.5,99.1667 189.5,104.5C 184.637,104.181 179.97,104.514 175.5,105.5C 170.922,106.843 169.422,109.843 171,114.5C 172.371,116.041 173.871,117.375 175.5,118.5C 179.97,119.486 184.637,119.819 189.5,119.5C 189.5,122.167 189.5,124.833 189.5,127.5C 185.958,127.187 182.625,127.521 179.5,128.5C 174.257,132.753 174.257,137.087 179.5,141.5C 182.625,142.479 185.958,142.813 189.5,142.5C 189.5,185.5 189.5,228.5 189.5,271.5C 177.5,271.5 165.5,271.5 153.5,271.5C 153.5,210.5 153.5,149.5 153.5,88.5 Z"/></g>
<g><path style="opacity:1" fill="#feb232" d="M 189.5,88.5 C 201.5,88.5 213.5,88.5 225.5,88.5C 225.5,149.5 225.5,210.5 225.5,271.5C 213.5,271.5 201.5,271.5 189.5,271.5C 189.5,228.5 189.5,185.5 189.5,142.5C 185.958,142.813 182.625,142.479 179.5,141.5C 185.842,141.666 192.175,141.5 198.5,141C 201.683,139.982 203.016,137.815 202.5,134.5C 202.45,132.077 201.45,130.244 199.5,129C 192.842,128.5 186.175,128.334 179.5,128.5C 182.625,127.521 185.958,127.187 189.5,127.5C 189.5,124.833 189.5,122.167 189.5,119.5C 184.637,119.819 179.97,119.486 175.5,118.5C 184.839,118.666 194.173,118.5 203.5,118C 209.673,114.336 210.006,110.336 204.5,106C 194.839,105.5 185.172,105.334 175.5,105.5C 179.97,104.514 184.637,104.181 189.5,104.5C 189.5,99.1667 189.5,93.8333 189.5,88.5 Z"/></g>
<g><path style="opacity:1" fill="#237ebd" d="M 302.5,87.5 C 304.606,93.7992 306.606,100.133 308.5,106.5C 308.5,107.5 308.5,108.5 308.5,109.5C 305.375,110.479 302.042,110.813 298.5,110.5C 298.5,103.833 298.5,97.1667 298.5,90.5C 299.833,90.5 301.167,90.5 302.5,90.5C 302.5,89.5 302.5,88.5 302.5,87.5 Z"/></g>
<g><path style="opacity:1" fill="#26b55f" d="M 344.5,104.5 C 340.313,106.064 335.98,107.564 331.5,109C 326.776,114.826 327.943,118.993 335,121.5C 338.489,120.724 341.989,120.058 345.5,119.5C 346.833,119.5 348.167,119.5 349.5,119.5C 349.833,122.167 350.167,124.833 350.5,127.5C 347.821,128.226 345.154,129.059 342.5,130C 338.59,133.925 338.59,137.925 342.5,142C 344.473,142.495 346.473,142.662 348.5,142.5C 350.861,142.326 353.194,141.993 355.5,141.5C 364.882,176.819 374.382,212.153 384,247.5C 385.49,253.449 386.656,259.449 387.5,265.5C 376.079,268.083 364.746,271.083 353.5,274.5C 350.192,265.241 347.525,255.908 345.5,246.5C 333.534,200.642 321.201,154.976 308.5,109.5C 308.5,108.5 308.5,107.5 308.5,106.5C 308.343,105.127 308.51,103.793 309,102.5C 310.976,101.457 311.476,100.123 310.5,98.5C 321.128,95.5097 331.794,92.843 342.5,90.5C 342.846,95.216 343.513,99.8827 344.5,104.5 Z"/></g>
<g><path style="opacity:0.993" fill="#177cc0" d="M 379.5,90.5 C 404.836,90.3334 430.169,90.5 455.5,91C 468.554,93.7206 476.721,101.554 480,114.5C 480.5,194.833 480.667,275.166 480.5,355.5C 474.167,355.5 467.833,355.5 461.5,355.5C 461.833,276.332 461.499,197.332 460.5,118.5C 459.011,114.847 456.344,112.347 452.5,111C 429.836,110.5 407.169,110.333 384.5,110.5C 382.835,103.848 381.169,97.1809 379.5,90.5 Z"/></g>
<g><path style="opacity:1" fill="#1e9df3" d="M 96.5,99.5 C 103.5,99.5 110.5,99.5 117.5,99.5C 117.5,107.167 117.5,114.833 117.5,122.5C 115.302,122.12 113.635,122.787 112.5,124.5C 111.542,124.953 110.708,125.619 110,126.5C 109.169,162.002 109.336,197.336 110.5,232.5C 111.167,233.5 111.833,234.5 112.5,235.5C 113.287,237.104 114.62,237.771 116.5,237.5C 116.5,244.833 116.5,252.167 116.5,259.5C 104.833,259.5 93.1667,259.5 81.5,259.5C 81.5,211.5 81.5,163.5 81.5,115.5C 82.7573,112.573 84.7573,110.239 87.5,108.5C 90.1667,105.167 93.1667,102.167 96.5,99.5 Z"/></g>
<g><path style="opacity:1" fill="#4eabf6" d="M 117.5,99.5 C 128.833,99.5 140.167,99.5 151.5,99.5C 151.5,152.833 151.5,206.167 151.5,259.5C 139.988,259.172 128.654,259.505 117.5,260.5C 116.507,268.65 116.174,276.983 116.5,285.5C 104.833,285.5 93.1667,285.5 81.5,285.5C 81.5,291.833 81.5,298.167 81.5,304.5C 80.5012,256.003 80.1678,207.336 80.5,158.5C 80.5,144.5 80.5,130.5 80.5,116.5C 80.5,115.833 80.8333,115.5 81.5,115.5C 81.5,163.5 81.5,211.5 81.5,259.5C 93.1667,259.5 104.833,259.5 116.5,259.5C 116.5,252.167 116.5,244.833 116.5,237.5C 114.62,237.771 113.287,237.104 112.5,235.5C 116.547,237.355 120.047,236.688 123,233.5C 123.833,197.495 123.667,161.495 122.5,125.5C 119.404,123.209 116.071,122.875 112.5,124.5C 113.635,122.787 115.302,122.12 117.5,122.5C 117.5,114.833 117.5,107.167 117.5,99.5 Z"/></g>
<g><path style="opacity:1" fill="#fe4155" d="M 262.5,99.5 C 274.167,99.5 285.833,99.5 297.5,99.5C 297.5,153.167 297.5,206.833 297.5,260.5C 285.833,260.5 274.167,260.5 262.5,260.5C 262.5,252.833 262.5,245.167 262.5,237.5C 261.209,237.737 260.209,237.404 259.5,236.5C 263.49,237.384 266.323,236.051 268,232.5C 268.667,197.5 268.667,162.5 268,127.5C 266.945,124.944 265.112,123.277 262.5,122.5C 262.5,114.833 262.5,107.167 262.5,99.5 Z"/></g>
<g><path style="opacity:1" fill="#e80354" d="M 261.5,99.5 C 261.833,99.5 262.167,99.5 262.5,99.5C 262.5,107.167 262.5,114.833 262.5,122.5C 259.192,121.974 257.026,123.307 256,126.5C 255.333,162.167 255.333,197.833 256,233.5C 257.039,234.71 258.206,235.71 259.5,236.5C 260.209,237.404 261.209,237.737 262.5,237.5C 262.5,245.167 262.5,252.833 262.5,260.5C 262.167,260.5 261.833,260.5 261.5,260.5C 249.833,260.5 238.167,260.5 226.5,260.5C 226.5,206.833 226.5,153.167 226.5,99.5C 238.167,99.5 249.833,99.5 261.5,99.5 Z"/></g>
<g><path style="opacity:0.157" fill="#4c6986" d="M 111.5,84.5 C 107.167,89.5 102.167,94.5 96.5,99.5C 93.1667,102.167 90.1667,105.167 87.5,108.5C 87.5,107.833 87.5,107.167 87.5,106.5C 94.5948,98.0672 102.595,90.7339 111.5,84.5 Z"/></g>
<g><path style="opacity:1" fill="#e0ecf6" d="M 345.5,119.5 C 341.989,120.058 338.489,120.724 335,121.5C 327.943,118.993 326.776,114.826 331.5,109C 335.98,107.564 340.313,106.064 344.5,104.5C 349.847,103.303 355.18,102.469 360.5,102C 366.252,105.181 366.919,109.181 362.5,114C 356.615,115.53 350.948,117.364 345.5,119.5 Z"/></g>
<g><path style="opacity:1" fill="#fcefc2" d="M 175.5,105.5 C 185.172,105.334 194.839,105.5 204.5,106C 210.006,110.336 209.673,114.336 203.5,118C 194.173,118.5 184.839,118.666 175.5,118.5C 173.871,117.375 172.371,116.041 171,114.5C 169.422,109.843 170.922,106.843 175.5,105.5 Z"/></g>
<g><path style="opacity:1" fill="#5baceb" d="M 151.5,99.5 C 151.833,99.5 152.167,99.5 152.5,99.5C 152.5,153.167 152.5,206.833 152.5,260.5C 140.833,260.5 129.167,260.5 117.5,260.5C 128.654,259.505 139.988,259.172 151.5,259.5C 151.5,206.167 151.5,152.833 151.5,99.5 Z"/></g>
<g><path style="opacity:1" fill="#e7edfc" d="M 308.5,109.5 C 321.201,154.976 333.534,200.642 345.5,246.5C 345.5,247.833 345.5,249.167 345.5,250.5C 329.552,251.97 313.886,254.97 298.5,259.5C 298.5,209.833 298.5,160.167 298.5,110.5C 302.042,110.813 305.375,110.479 308.5,109.5 Z"/></g>
<g><path style="opacity:1" fill="#e7eefe" d="M 384.5,110.5 C 407.169,110.333 429.836,110.5 452.5,111C 456.344,112.347 459.011,114.847 460.5,118.5C 460.5,182.833 460.5,247.167 460.5,311.5C 446.721,311.183 434.054,307.35 422.5,300C 423.381,299.292 424.047,298.458 424.5,297.5C 428.993,295.014 430.993,291.181 430.5,286C 428.789,275.742 426.623,265.576 424,255.5C 423.626,253.509 422.793,251.842 421.5,250.5C 409.475,203.732 397.142,157.066 384.5,110.5 Z"/></g>
<g><path style="opacity:0.141" fill="#5f6167" d="M 87.5,106.5 C 87.5,107.167 87.5,107.833 87.5,108.5C 84.7573,110.239 82.7573,112.573 81.5,115.5C 80.8333,115.5 80.5,115.833 80.5,116.5C 72.4479,126.551 64.7812,136.885 57.5,147.5C 64.8144,131.873 74.8144,118.206 87.5,106.5 Z"/></g>
<g><path style="opacity:1" fill="#67a9d9" d="M 460.5,118.5 C 461.499,197.332 461.833,276.332 461.5,355.5C 467.833,355.5 474.167,355.5 480.5,355.5C 480.5,355.833 480.5,356.167 480.5,356.5C 473.833,356.5 467.167,356.5 460.5,356.5C 460.5,356.167 460.5,355.833 460.5,355.5C 460.5,340.833 460.5,326.167 460.5,311.5C 460.5,247.167 460.5,182.833 460.5,118.5 Z"/></g>
<g><path style="opacity:0.451" fill="#2c5d82" d="M 380.5,85.5 C 381.028,86.7206 381.695,87.8873 382.5,89C 406.164,89.5 429.831,89.6666 453.5,89.5C 470.041,91.0413 479.374,100.041 481.5,116.5C 481.833,196.335 481.499,276.002 480.5,355.5C 480.667,275.166 480.5,194.833 480,114.5C 476.721,101.554 468.554,93.7206 455.5,91C 430.169,90.5 404.836,90.3334 379.5,90.5C 378.89,89.609 378.557,88.609 378.5,87.5C 378.5,86.1667 379.167,85.5 380.5,85.5 Z"/></g>
<g><path style="opacity:1" fill="#ced8f7" d="M 80.5,116.5 C 80.5,130.5 80.5,144.5 80.5,158.5C 71.1711,158.694 62.0045,160.027 53,162.5C 52.2352,162.43 51.7352,162.097 51.5,161.5C 53.6259,156.817 55.6259,152.15 57.5,147.5C 64.7812,136.885 72.4479,126.551 80.5,116.5 Z"/></g>
<g><path style="opacity:1" fill="#72c2f8" d="M 112.5,235.5 C 111.833,234.5 111.167,233.5 110.5,232.5C 110.333,197.498 110.5,162.498 111,127.5C 112.039,126.756 112.539,125.756 112.5,124.5C 116.071,122.875 119.404,123.209 122.5,125.5C 123.667,161.495 123.833,197.495 123,233.5C 120.047,236.688 116.547,237.355 112.5,235.5 Z"/></g>
<g><path style="opacity:1" fill="#fe6f85" d="M 262.5,122.5 C 265.112,123.277 266.945,124.944 268,127.5C 268.667,162.5 268.667,197.5 268,232.5C 266.323,236.051 263.49,237.384 259.5,236.5C 258.206,235.71 257.039,234.71 256,233.5C 255.333,197.833 255.333,162.167 256,126.5C 257.026,123.307 259.192,121.974 262.5,122.5 Z"/></g>
<g><path style="opacity:1" fill="#e2edf8" d="M 348.5,142.5 C 346.473,142.662 344.473,142.495 342.5,142C 338.59,137.925 338.59,133.925 342.5,130C 345.154,129.059 347.821,128.226 350.5,127.5C 354.351,125.831 358.351,125.331 362.5,126C 366.807,129.06 367.473,132.727 364.5,137C 358.961,138.543 353.627,140.376 348.5,142.5 Z"/></g>
<g><path style="opacity:1" fill="#43aef6" d="M 112.5,124.5 C 112.539,125.756 112.039,126.756 111,127.5C 110.5,162.498 110.333,197.498 110.5,232.5C 109.336,197.336 109.169,162.002 110,126.5C 110.708,125.619 111.542,124.953 112.5,124.5 Z"/></g>
<g><path style="opacity:1" fill="#fcefc3" d="M 179.5,128.5 C 186.175,128.334 192.842,128.5 199.5,129C 201.45,130.244 202.45,132.077 202.5,134.5C 203.016,137.815 201.683,139.982 198.5,141C 192.175,141.5 185.842,141.666 179.5,141.5C 174.257,137.087 174.257,132.753 179.5,128.5 Z"/></g>
<g><path style="opacity:1" fill="#72c2f8" d="M 80.5,158.5 C 80.1678,207.336 80.5012,256.003 81.5,304.5C 83.0772,307.05 85.0772,309.05 87.5,310.5C 105.326,311.497 123.326,311.83 141.5,311.5C 135.708,317.194 133.042,324.194 133.5,332.5C 133.86,336.517 134.36,340.517 135,344.5C 137.19,348.222 139.356,351.889 141.5,355.5C 112.5,355.5 83.5,355.5 54.5,355.5C 53.7368,353.632 52.7368,351.965 51.5,350.5C 51.8324,287.998 51.4991,225.664 50.5,163.5C 50.5,163.167 50.5,162.833 50.5,162.5C 50.5,161.833 50.8333,161.5 51.5,161.5C 51.7352,162.097 52.2352,162.43 53,162.5C 62.0045,160.027 71.1711,158.694 80.5,158.5 Z"/></g>
<g><path style="opacity:0.063" fill="#565a63" d="M 57.5,147.5 C 55.6259,152.15 53.6259,156.817 51.5,161.5C 50.8333,161.5 50.5,161.833 50.5,162.5C 49.9348,164.42 48.9348,166.087 47.5,167.5C 49.2449,160.01 52.5782,153.344 57.5,147.5 Z"/></g>
<g><path style="opacity:1" fill="#4897d3" d="M 50.5,163.5 C 51.4991,225.664 51.8324,287.998 51.5,350.5C 50.8333,350.5 50.1667,350.5 49.5,350.5C 49.5,349.833 49.5,349.167 49.5,348.5C 50.4991,287.002 50.8324,225.336 50.5,163.5 Z"/></g>
<g><path style="opacity:0.471" fill="#435773" d="M 47.5,167.5 C 44.2604,177.008 41.2604,186.675 38.5,196.5C 38.2528,197.713 37.5862,198.38 36.5,198.5C 36.6969,194.378 37.5302,190.378 39,186.5C 41.2304,182.038 42.8971,177.372 44,172.5C 45.1889,170.767 46.3556,169.1 47.5,167.5 Z"/></g>
<g><path style="opacity:0.997" fill="#1161a6" d="M 50.5,162.5 C 50.5,162.833 50.5,163.167 50.5,163.5C 50.8324,225.336 50.4991,287.002 49.5,348.5C 46.6493,343.459 44.316,338.125 42.5,332.5C 38.2583,315.799 34.2583,299.133 30.5,282.5C 30.5,281.833 30.5,281.167 30.5,280.5C 30.5,263.5 30.5,246.5 30.5,229.5C 30.5,229.167 30.5,228.833 30.5,228.5C 33.1017,218.738 35.1017,208.738 36.5,198.5C 37.5862,198.38 38.2528,197.713 38.5,196.5C 41.2604,186.675 44.2604,177.008 47.5,167.5C 48.9348,166.087 49.9348,164.42 50.5,162.5 Z"/></g>
<g><path style="opacity:0.235" fill="#3b4e68" d="M 36.5,198.5 C 35.1017,208.738 33.1017,218.738 30.5,228.5C 30.9457,218.073 32.9457,208.073 36.5,198.5 Z"/></g>
<g><path style="opacity:0.451" fill="#3f4560" d="M 30.5,229.5 C 30.5,246.5 30.5,263.5 30.5,280.5C 27.8333,263.5 27.8333,246.5 30.5,229.5 Z"/></g>
<g><path style="opacity:1" fill="#9bd7f7" d="M 153.5,59.5 C 153.5,69.1667 153.5,78.8333 153.5,88.5C 153.5,149.5 153.5,210.5 153.5,271.5C 153.333,282.505 153.5,293.505 154,304.5C 155.458,306.96 157.291,309.127 159.5,311C 179.338,311.829 199.004,311.662 218.5,310.5C 221.833,309.167 224.167,306.833 225.5,303.5C 226.921,306.758 229.254,309.258 232.5,311C 251.671,311.829 270.671,311.662 289.5,310.5C 293.435,309.562 296.101,307.229 297.5,303.5C 298.496,289.01 298.829,274.343 298.5,259.5C 313.886,254.97 329.552,251.97 345.5,250.5C 345.5,249.167 345.5,247.833 345.5,246.5C 347.525,255.908 350.192,265.241 353.5,274.5C 355.474,284.264 357.974,293.931 361,303.5C 362.705,308.872 366.371,311.539 372,311.5C 384.705,308.368 397.205,305.034 409.5,301.5C 414.607,300.576 419.607,299.242 424.5,297.5C 424.047,298.458 423.381,299.292 422.5,300C 434.054,307.35 446.721,311.183 460.5,311.5C 460.5,326.167 460.5,340.833 460.5,355.5C 354.167,355.5 247.833,355.5 141.5,355.5C 139.356,351.889 137.19,348.222 135,344.5C 134.36,340.517 133.86,336.517 133.5,332.5C 133.042,324.194 135.708,317.194 141.5,311.5C 146.208,311.057 149.708,308.724 152,304.5C 152.5,298.175 152.666,291.842 152.5,285.5C 152.5,277.167 152.5,268.833 152.5,260.5C 152.5,206.833 152.5,153.167 152.5,99.5C 152.5,91.1667 152.5,82.8333 152.5,74.5C 152.5,70.1667 152.5,65.8333 152.5,61.5C 152.328,60.5084 152.662,59.8417 153.5,59.5 Z"/></g>
<g><path style="opacity:1" fill="#4bd78b" d="M 421.5,250.5 C 422.793,251.842 423.626,253.509 424,255.5C 426.623,265.576 428.789,275.742 430.5,286C 430.993,291.181 428.993,295.014 424.5,297.5C 419.607,299.242 414.607,300.576 409.5,301.5C 410.263,300.732 411.263,300.232 412.5,300C 403.673,299.849 397.506,295.683 394,287.5C 391.645,279.94 389.812,272.274 388.5,264.5C 400.015,262.122 411.348,259.122 422.5,255.5C 421.691,253.929 421.357,252.262 421.5,250.5 Z"/></g>
<g><path style="opacity:1" fill="#72c2f8" d="M 117.5,260.5 C 129.167,260.5 140.833,260.5 152.5,260.5C 152.5,268.833 152.5,277.167 152.5,285.5C 140.5,285.5 128.5,285.5 116.5,285.5C 116.174,276.983 116.507,268.65 117.5,260.5 Z"/></g>
<g><path style="opacity:1" fill="#fd4054" d="M 225.5,74.5 C 237.5,74.5 249.5,74.5 261.5,74.5C 261.5,82.8333 261.5,91.1667 261.5,99.5C 249.833,99.5 238.167,99.5 226.5,99.5C 226.5,153.167 226.5,206.833 226.5,260.5C 238.167,260.5 249.833,260.5 261.5,260.5C 261.5,268.833 261.5,277.167 261.5,285.5C 249.833,285.5 238.167,285.5 226.5,285.5C 226.822,291.358 226.489,297.025 225.5,302.5C 225.5,292.167 225.5,281.833 225.5,271.5C 225.5,210.5 225.5,149.5 225.5,88.5C 225.5,83.8333 225.5,79.1667 225.5,74.5 Z"/></g>
<g><path style="opacity:1" fill="#fe6f84" d="M 261.5,260.5 C 261.833,260.5 262.167,260.5 262.5,260.5C 274.167,260.5 285.833,260.5 297.5,260.5C 297.5,268.833 297.5,277.167 297.5,285.5C 285.833,285.5 274.167,285.5 262.5,285.5C 262.167,285.5 261.833,285.5 261.5,285.5C 261.5,277.167 261.5,268.833 261.5,260.5 Z"/></g>
<g><path style="opacity:1" fill="#fdb334" d="M 153.5,271.5 C 165.5,271.5 177.5,271.5 189.5,271.5C 189.334,280.506 189.5,289.506 190,298.5C 191.119,303.239 193.619,307.072 197.5,310C 204.492,310.5 211.492,310.666 218.5,310.5C 199.004,311.662 179.338,311.829 159.5,311C 157.291,309.127 155.458,306.96 154,304.5C 153.5,293.505 153.333,282.505 153.5,271.5 Z"/></g>
<g><path style="opacity:1" fill="#fedc40" d="M 189.5,271.5 C 201.5,271.5 213.5,271.5 225.5,271.5C 225.5,281.833 225.5,292.167 225.5,302.5C 225.5,302.833 225.5,303.167 225.5,303.5C 224.167,306.833 221.833,309.167 218.5,310.5C 211.492,310.666 204.492,310.5 197.5,310C 193.619,307.072 191.119,303.239 190,298.5C 189.5,289.506 189.334,280.506 189.5,271.5 Z"/></g>
<g><path style="opacity:1" fill="#1f9ef4" d="M 116.5,285.5 C 117.105,291.166 117.938,296.833 119,302.5C 120.36,305.735 122.527,308.235 125.5,310C 112.838,310.5 100.171,310.667 87.5,310.5C 85.0772,309.05 83.0772,307.05 81.5,304.5C 81.5,298.167 81.5,291.833 81.5,285.5C 93.1667,285.5 104.833,285.5 116.5,285.5 Z"/></g>
<g><path style="opacity:1" fill="#4eaaf6" d="M 116.5,285.5 C 128.5,285.5 140.5,285.5 152.5,285.5C 152.666,291.842 152.5,298.175 152,304.5C 149.708,308.724 146.208,311.057 141.5,311.5C 123.326,311.83 105.326,311.497 87.5,310.5C 100.171,310.667 112.838,310.5 125.5,310C 122.527,308.235 120.36,305.735 119,302.5C 117.938,296.833 117.105,291.166 116.5,285.5 Z"/></g>
<g><path style="opacity:1" fill="#e70b55" d="M 261.5,285.5 C 261.833,285.5 262.167,285.5 262.5,285.5C 260.654,294.992 262.987,303.159 269.5,310C 276.158,310.5 282.825,310.666 289.5,310.5C 270.671,311.662 251.671,311.829 232.5,311C 229.254,309.258 226.921,306.758 225.5,303.5C 225.5,303.167 225.5,302.833 225.5,302.5C 226.489,297.025 226.822,291.358 226.5,285.5C 238.167,285.5 249.833,285.5 261.5,285.5 Z"/></g>
<g><path style="opacity:1" fill="#fe4155" d="M 262.5,285.5 C 274.167,285.5 285.833,285.5 297.5,285.5C 297.5,291.5 297.5,297.5 297.5,303.5C 296.101,307.229 293.435,309.562 289.5,310.5C 282.825,310.666 276.158,310.5 269.5,310C 262.987,303.159 260.654,294.992 262.5,285.5 Z"/></g>
<g><path style="opacity:0.141" fill="#41526b" d="M 30.5,282.5 C 34.2583,299.133 38.2583,315.799 42.5,332.5C 38.096,320.906 34.596,308.906 32,296.5C 31.006,291.882 30.506,287.215 30.5,282.5 Z"/></g>
<g><path style="opacity:1" fill="#c0e0fb" d="M 54.5,355.5 C 83.5,355.5 112.5,355.5 141.5,355.5C 247.833,355.5 354.167,355.5 460.5,355.5C 460.5,355.833 460.5,356.167 460.5,356.5C 354.167,356.5 247.833,356.5 141.5,356.5C 112.662,356.169 83.9951,356.502 55.5,357.5C 54.6618,357.158 54.3284,356.492 54.5,355.5 Z"/></g>
<g><path style="opacity:1" fill="#d1daf9" d="M 141.5,356.5 C 141.147,369.542 141.647,382.542 143,395.5C 145.133,403.3 149.299,409.8 155.5,415C 174.671,415.168 193.671,415.668 212.5,416.5C 175.833,416.5 139.167,416.5 102.5,416.5C 92.5022,408.669 83.6689,399.669 76,389.5C 68.5486,379.218 61.7153,368.551 55.5,357.5C 83.9951,356.502 112.662,356.169 141.5,356.5 Z"/></g>
<g><path style="opacity:1" fill="#e8eefe" d="M 141.5,356.5 C 247.833,356.5 354.167,356.5 460.5,356.5C 467.167,356.5 473.833,356.5 480.5,356.5C 481.003,370.264 480.336,383.93 478.5,397.5C 474.229,405.93 467.562,411.763 458.5,415C 435.544,416.447 412.544,416.947 389.5,416.5C 330.667,415.793 271.667,415.793 212.5,416.5C 193.671,415.668 174.671,415.168 155.5,415C 149.299,409.8 145.133,403.3 143,395.5C 141.647,382.542 141.147,369.542 141.5,356.5 Z"/></g>
<g><path style="opacity:0.451" fill="#7f8185" d="M 481.5,116.5 C 482.666,207.999 482.832,299.666 482,391.5C 481.648,393.247 481.148,394.914 480.5,396.5C 479.833,396.833 479.167,397.167 478.5,397.5C 480.336,383.93 481.003,370.264 480.5,356.5C 480.5,356.167 480.5,355.833 480.5,355.5C 481.499,276.002 481.833,196.335 481.5,116.5 Z"/></g>
<g><path style="opacity:0.086" fill="#585a61" d="M 49.5,350.5 C 50.1667,350.5 50.8333,350.5 51.5,350.5C 52.7368,351.965 53.7368,353.632 54.5,355.5C 54.3284,356.492 54.6618,357.158 55.5,357.5C 61.7153,368.551 68.5486,379.218 76,389.5C 83.6689,399.669 92.5022,408.669 102.5,416.5C 102.5,417.167 102.833,417.5 103.5,417.5C 106.243,420.182 108.909,422.849 111.5,425.5C 107.067,422.916 102.734,420.082 98.5,417C 77.8988,397.958 61.5654,375.791 49.5,350.5 Z"/></g>
<g><path style="opacity:1" fill="#bfc9f7" d="M 251.5,372.5 C 258.865,371.765 264.699,374.432 269,380.5C 270.198,393.969 264.031,400.136 250.5,399C 243.71,394.552 241.21,388.385 243,380.5C 245.157,377.024 247.99,374.357 251.5,372.5 Z"/></g>
<g><path style="opacity:1" fill="#3a4b8e" d="M 102.5,416.5 C 139.167,416.5 175.833,416.5 212.5,416.5C 212.795,418.735 212.461,420.735 211.5,422.5C 211.5,420.833 211.5,419.167 211.5,417.5C 175.5,417.5 139.5,417.5 103.5,417.5C 102.833,417.5 102.5,417.167 102.5,416.5 Z"/></g>
<g><path style="opacity:0.396" fill="#6a6b6f" d="M 480.5,396.5 C 476.266,409.468 467.266,416.468 453.5,417.5C 431.833,417.5 410.167,417.5 388.5,417.5C 388.5,417.167 388.5,416.833 388.5,416.5C 388.833,416.5 389.167,416.5 389.5,416.5C 412.544,416.947 435.544,416.447 458.5,415C 467.562,411.763 474.229,405.93 478.5,397.5C 479.167,397.167 479.833,396.833 480.5,396.5 Z"/></g>
<g><path style="opacity:0.998" fill="#1c2e79" d="M 103.5,417.5 C 139.5,417.5 175.5,417.5 211.5,417.5C 211.5,419.167 211.5,420.833 211.5,422.5C 210.088,435.55 208.255,448.55 206,461.5C 204.906,463.078 204.072,464.745 203.5,466.5C 201.143,466.663 198.81,466.497 196.5,466C 187.419,463.647 178.419,461.147 169.5,458.5C 164.014,454.758 158.014,452.092 151.5,450.5C 149.353,448.53 147.02,446.697 144.5,445C 135.857,441.013 127.524,436.513 119.5,431.5C 116.109,430.471 113.443,428.471 111.5,425.5C 108.909,422.849 106.243,420.182 103.5,417.5 Z"/></g>
<g><path style="opacity:1" fill="#bac4f3" d="M 389.5,416.5 C 389.167,416.5 388.833,416.5 388.5,416.5C 358.833,416.5 329.167,416.5 299.5,416.5C 300.385,423.143 301.052,429.81 301.5,436.5C 300.776,434.782 300.109,432.948 299.5,431C 283.766,430.047 268.099,430.38 252.5,432C 246.797,435.368 242.963,440.201 241,446.5C 239.137,454.372 237.971,462.372 237.5,470.5C 244.167,470.5 250.833,470.5 257.5,470.5C 239.258,472.625 221.258,471.291 203.5,466.5C 204.072,464.745 204.906,463.078 206,461.5C 208.255,448.55 210.088,435.55 211.5,422.5C 212.461,420.735 212.795,418.735 212.5,416.5C 271.667,415.793 330.667,415.793 389.5,416.5 Z"/></g>
<g><path style="opacity:0.997" fill="#1d2e7a" d="M 388.5,416.5 C 388.5,416.833 388.5,417.167 388.5,417.5C 370.716,433.078 350.716,445.244 328.5,454C 327.619,454.708 326.953,455.542 326.5,456.5C 323.017,457.752 319.351,458.586 315.5,459C 314.429,459.852 313.429,460.685 312.5,461.5C 310.5,461.833 308.5,462.167 306.5,462.5C 306.737,461.209 306.404,460.209 305.5,459.5C 304.71,451.61 303.377,443.943 301.5,436.5C 301.052,429.81 300.385,423.143 299.5,416.5C 329.167,416.5 358.833,416.5 388.5,416.5 Z"/></g>
<g><path style="opacity:0.035" fill="#424353" d="M 388.5,417.5 C 410.167,417.5 431.833,417.5 453.5,417.5C 432.337,418.332 411.004,418.832 389.5,419C 370.969,435.601 349.969,448.101 326.5,456.5C 326.953,455.542 327.619,454.708 328.5,454C 350.716,445.244 370.716,433.078 388.5,417.5 Z"/></g>
<g><path style="opacity:1" fill="#d2dbfa" d="M 301.5,436.5 C 301.831,444.473 303.164,452.14 305.5,459.5C 305.5,460.833 305.5,462.167 305.5,463.5C 296.13,465.008 286.797,466.841 277.5,469C 270.872,470.052 264.206,470.552 257.5,470.5C 250.833,470.5 244.167,470.5 237.5,470.5C 237.971,462.372 239.137,454.372 241,446.5C 242.963,440.201 246.797,435.368 252.5,432C 268.099,430.38 283.766,430.047 299.5,431C 300.109,432.948 300.776,434.782 301.5,436.5 Z"/></g>
<g><path style="opacity:0.078" fill="#36374b" d="M 119.5,431.5 C 127.524,436.513 135.857,441.013 144.5,445C 147.02,446.697 149.353,448.53 151.5,450.5C 139.309,446.623 128.642,440.29 119.5,431.5 Z"/></g>
<g><path style="opacity:1" fill="#7380b7" d="M 301.5,436.5 C 303.377,443.943 304.71,451.61 305.5,459.5C 303.164,452.14 301.831,444.473 301.5,436.5 Z"/></g>
<g><path style="opacity:0.51" fill="#393b52" d="M 151.5,450.5 C 158.014,452.092 164.014,454.758 169.5,458.5C 162.97,456.899 156.97,454.233 151.5,450.5 Z"/></g>
<g><path style="opacity:0.188" fill="#383949" d="M 326.5,456.5 C 323.59,459.449 319.923,461.116 315.5,461.5C 314.5,461.5 313.5,461.5 312.5,461.5C 313.429,460.685 314.429,459.852 315.5,459C 319.351,458.586 323.017,457.752 326.5,456.5 Z"/></g>
<g><path style="opacity:0.333" fill="#5f6068" d="M 169.5,458.5 C 178.419,461.147 187.419,463.647 196.5,466C 198.81,466.497 201.143,466.663 203.5,466.5C 221.258,471.291 239.258,472.625 257.5,470.5C 264.206,470.552 270.872,470.052 277.5,469C 286.797,466.841 296.13,465.008 305.5,463.5C 305.5,462.167 305.5,460.833 305.5,459.5C 306.404,460.209 306.737,461.209 306.5,462.5C 308.5,462.167 310.5,461.833 312.5,461.5C 313.5,461.5 314.5,461.5 315.5,461.5C 269.36,477.324 223.027,477.491 176.5,462C 173.931,461.102 171.598,459.935 169.5,458.5 Z"/></g>
</svg>
